<svg width="115" height="37" viewBox="0 0 115 37" fill="none" xmlns="http://www.w3.org/2000/svg">
<path d="M35.3116 18.459L26.7101 36.1148H22.6357H8.87666L5.00735 28.4187L0 18.459L8.60155 0.803223H12.676H26.7101L30.4595 8.49934L35.3116 18.459Z" fill="black"/>
<path d="M22.6353 28.4165L27.6152 18.4568L22.6353 8.49713L30.7842 18.4568L22.6353 28.4165Z" fill="white"/>
<path d="M11.3175 10.3094L12.6756 8.49854L7.69577 18.4582L12.6756 28.4179L4.97949 18.4582L11.3175 10.3094Z" fill="white"/>
<path d="M41.3217 20V7.76091H42.522V18.9181H48.3203V20H41.3217ZM54.0511 20.186C51.4646 20.186 49.8418 18.2588 49.8418 15.4695C49.8418 12.6802 51.4984 10.6854 53.882 10.6854C55.8768 10.6854 57.8039 12.1054 57.8039 15.2159V15.7569H50.9913C51.042 17.8277 52.2169 19.1548 54.0511 19.1548C55.3189 19.1548 56.0627 18.4955 56.3839 17.9207H57.618C57.2123 19.1886 55.9106 20.186 54.0511 20.186ZM51.0082 14.7595H56.6206C56.6206 13.0352 55.5049 11.7335 53.8989 11.7335C52.2338 11.7335 51.1012 13.1028 51.0082 14.7595ZM66.7128 10.8207L63.3656 20H62.1316L58.7844 10.8207H60.0354L62.7063 18.4955H62.7909L65.4787 10.8207H66.7128ZM68.4709 20V10.8207H69.6204V20H68.4709ZM69.0625 9.24853C68.6061 9.24853 68.2173 8.89353 68.2173 8.45401C68.2173 8.01448 68.6061 7.64258 69.0625 7.64258C69.519 7.64258 69.9078 8.01448 69.9078 8.45401C69.9078 8.89353 69.519 9.24853 69.0625 9.24853ZM75.8076 10.8207V11.8012H73.8804V17.5488C73.8804 18.7152 74.5228 19.0364 75.2159 19.0364C75.4526 19.0364 75.7907 19.0026 75.9766 19.0026V20.0845C75.7907 20.1014 75.5033 20.1352 75.1145 20.1352C73.9142 20.1352 72.714 19.3576 72.714 17.8362V11.8012H71.3447V10.8207H72.714V8.62306H73.8804V10.8207H75.8076ZM77.4304 17.4305C77.4304 15.5709 78.935 14.8609 80.8114 14.7088C81.42 14.6665 82.9076 14.582 83.3471 14.5566V13.6945C83.3471 12.4605 82.5526 11.7166 81.1157 11.7166C79.9154 11.7166 79.104 12.2745 78.8842 13.1028H77.684C77.87 11.649 79.2731 10.6854 81.1833 10.6854C82.5526 10.6854 84.4966 11.2771 84.4966 13.7959V20H83.3471V18.58H83.2795C82.9076 19.3745 81.9947 20.2029 80.4564 20.2029C78.7828 20.2029 77.4304 19.2055 77.4304 17.4305ZM78.58 17.4812C78.58 18.5631 79.4421 19.1717 80.6254 19.1717C82.3159 19.1717 83.3471 17.9545 83.3471 16.5007V15.5202C82.8907 15.554 81.4284 15.6639 80.9804 15.6893C79.3576 15.8076 78.58 16.4331 78.58 17.4812ZM90.6838 10.8207V11.8012H88.7567V17.5488C88.7567 18.7152 89.399 19.0364 90.0921 19.0364C90.3288 19.0364 90.6669 19.0026 90.8529 19.0026V20.0845C90.6669 20.1014 90.3795 20.1352 89.9907 20.1352C88.7905 20.1352 87.5902 19.3576 87.5902 17.8362V11.8012H86.2209V10.8207H87.5902V8.62306H88.7567V10.8207H90.6838ZM92.7631 20V10.8207H93.9126V20H92.7631ZM93.3548 9.24853C92.8983 9.24853 92.5095 8.89353 92.5095 8.45401C92.5095 8.01448 92.8983 7.64258 93.3548 7.64258C93.8112 7.64258 94.2 8.01448 94.2 8.45401C94.2 8.89353 93.8112 9.24853 93.3548 9.24853ZM100.015 20.186C97.6148 20.186 95.9412 18.2588 95.9412 15.4526C95.9412 12.6295 97.6148 10.6854 100.015 10.6854C102.416 10.6854 104.072 12.6295 104.072 15.4526C104.072 18.2588 102.416 20.186 100.015 20.186ZM100.015 19.1548C101.892 19.1548 102.923 17.4643 102.923 15.4526C102.923 13.4409 101.892 11.7335 100.015 11.7335C98.1219 11.7335 97.0907 13.4409 97.0907 15.4526C97.0907 17.4643 98.1219 19.1548 100.015 19.1548ZM107.251 14.3031V20H106.084V10.8207H107.2V12.2745H107.301C107.741 11.3278 108.654 10.7023 110.006 10.7023C111.866 10.7023 113.117 11.8857 113.117 14.0664V20H111.967V14.1509C111.967 12.6633 111.088 11.7504 109.702 11.7504C108.282 11.7504 107.251 12.714 107.251 14.3031Z" fill="black"/>
<path d="M42.3897 29.3283V33.918H41.9397V29.3283H42.3897ZM43.8351 31.7816V33.918H43.3977V30.4757H43.8161V31.0209H43.8541C44.0189 30.6659 44.3613 30.4313 44.8684 30.4313C45.5657 30.4313 46.0348 30.8751 46.0348 31.6929V33.918H45.6038V31.7246C45.6038 31.1667 45.2741 30.8244 44.7543 30.8244C44.2218 30.8244 43.8351 31.1857 43.8351 31.7816ZM48.4057 30.4757V30.8434H47.645V33.918H47.214V30.8434H46.6815V30.4757H47.214V29.9813C47.214 29.4424 47.5499 29.1128 48.1141 29.1128C48.2282 29.1128 48.374 29.1318 48.4691 29.1508V29.5375C48.3677 29.5185 48.2726 29.5185 48.2029 29.5185C47.8225 29.5185 47.645 29.696 47.645 30.07V30.4757H48.4057ZM50.2885 33.9877C49.3883 33.9877 48.7607 33.265 48.7607 32.2127C48.7607 31.154 49.3883 30.425 50.2885 30.425C51.1887 30.425 51.81 31.154 51.81 32.2127C51.81 33.265 51.1887 33.9877 50.2885 33.9877ZM50.2885 33.601C50.9922 33.601 51.3789 32.9671 51.3789 32.2127C51.3789 31.4583 50.9922 30.818 50.2885 30.818C49.5785 30.818 49.1918 31.4583 49.1918 32.2127C49.1918 32.9671 49.5785 33.601 50.2885 33.601ZM53.9526 30.4757V30.8434H53.23V32.9988C53.23 33.4362 53.4709 33.5566 53.7308 33.5566C53.8195 33.5566 53.9463 33.5439 54.016 33.5439V33.9497C53.9463 33.956 53.8385 33.9687 53.6927 33.9687C53.2426 33.9687 52.7925 33.6771 52.7925 33.1065V30.8434H52.2791V30.4757H52.7925V29.6516H53.23V30.4757H53.9526ZM56.0953 33.9877C55.1254 33.9877 54.5168 33.265 54.5168 32.219C54.5168 31.173 55.1381 30.425 56.0319 30.425C56.78 30.425 57.5027 30.9575 57.5027 32.1239V32.3268H54.9479C54.9669 33.1034 55.4075 33.601 56.0953 33.601C56.5708 33.601 56.8497 33.3538 56.9701 33.1382H57.4329C57.2808 33.6137 56.7926 33.9877 56.0953 33.9877ZM54.9542 31.9528H57.0589C57.0589 31.3062 56.6405 30.818 56.0383 30.818C55.4138 30.818 54.9891 31.3315 54.9542 31.9528ZM59.6136 33.9877C58.6754 33.9877 58.0795 33.2397 58.0795 32.2127C58.0795 31.173 58.6944 30.425 59.6073 30.425C60.3046 30.425 60.8435 30.8624 60.9322 31.5027H60.5011C60.4187 31.1287 60.0954 30.818 59.6136 30.818C58.9607 30.818 58.5106 31.3759 58.5106 32.2C58.5106 33.0241 58.948 33.601 59.6136 33.601C60.0574 33.601 60.4061 33.3348 60.5011 32.91H60.9386C60.8435 33.5313 60.3363 33.9877 59.6136 33.9877ZM62.0986 31.7816V33.918H61.6612V29.3283H62.0986V31.0209H62.1303C62.2952 30.6596 62.6248 30.4313 63.151 30.4313C63.8483 30.4313 64.3237 30.8688 64.3237 31.6929V33.918H63.8927V31.7246C63.8927 31.1604 63.563 30.8244 63.0369 30.8244C62.4917 30.8244 62.0986 31.1857 62.0986 31.7816Z" fill="black"/>
</svg>
